<?xml version="1.0" encoding="UTF-8" standalone="no"?>
<!-- Created with Inkscape (http://www.inkscape.org/) -->

<svg
   width="210mm"
   height="297mm"
   viewBox="0 0 210 297"
   version="1.1"
   id="svg1"
   inkscape:version="1.4.3 (0d15f75042, 2025-12-25)"
   sodipodi:docname="fishing_gyal_full.svg"
   inkscape:export-batch-name="fishing_gyal_"
   inkscape:export-batch-path="/home/flashgrey/Downloads"
   inkscape:export-filename="fishing_gyal_l7.svg"
   inkscape:export-xdpi="96"
   inkscape:export-ydpi="96"
   xmlns:inkscape="http://www.inkscape.org/namespaces/inkscape"
   xmlns:sodipodi="http://sodipodi.sourceforge.net/DTD/sodipodi-0.dtd"
   xmlns:xlink="http://www.w3.org/1999/xlink"
   xmlns="http://www.w3.org/2000/svg"
   xmlns:svg="http://www.w3.org/2000/svg">
  <sodipodi:namedview
     id="namedview1"
     pagecolor="#ffffff"
     bordercolor="#999999"
     borderopacity="1"
     inkscape:showpageshadow="2"
     inkscape:pageopacity="0"
     inkscape:pagecheckerboard="0"
     inkscape:deskcolor="#d1d1d1"
     inkscape:document-units="mm"
     inkscape:zoom="0.91613309"
     inkscape:cx="309.45285"
     inkscape:cy="634.7331"
     inkscape:window-width="1876"
     inkscape:window-height="1008"
     inkscape:window-x="0"
     inkscape:window-y="0"
     inkscape:window-maximized="1"
     inkscape:current-layer="layer7"
     showgrid="false">
    <inkscape:page
       x="0"
       y="0"
       width="210"
       height="297"
       id="page2"
       margin="0"
       bleed="0" />
  </sodipodi:namedview>
  <defs
     id="defs1">
    <linearGradient
       id="linearGradient18"
       inkscape:collect="always">
      <stop
         style="stop-color:#160044;stop-opacity:1;"
         offset="0"
         id="stop18" />
      <stop
         style="stop-color:#050036;stop-opacity:1;"
         offset="1"
         id="stop19" />
    </linearGradient>
    <linearGradient
       id="linearGradient9"
       inkscape:collect="always">
      <stop
         style="stop-color:#4a3b00;stop-opacity:1;"
         offset="0"
         id="stop9" />
      <stop
         style="stop-color:#d6a000;stop-opacity:1;"
         offset="1"
         id="stop10" />
    </linearGradient>
    <linearGradient
       id="linearGradient7"
       inkscape:collect="always">
      <stop
         style="stop-color:#ff0808;stop-opacity:1;"
         offset="0"
         id="stop7" />
      <stop
         style="stop-color:#ae0000;stop-opacity:1;"
         offset="1"
         id="stop8" />
    </linearGradient>
    <linearGradient
       id="linearGradient2"
       inkscape:collect="always">
      <stop
         style="stop-color:#ff1212;stop-opacity:1;"
         offset="0"
         id="stop2" />
      <stop
         style="stop-color:#c60000;stop-opacity:1;"
         offset="1"
         id="stop3" />
    </linearGradient>
    <linearGradient
       inkscape:collect="always"
       xlink:href="#linearGradient2"
       id="linearGradient3"
       x1="70.29097"
       y1="107.7352"
       x2="149.76434"
       y2="107.7352"
       gradientUnits="userSpaceOnUse"
       gradientTransform="matrix(1.2359468,0,0,1.2209665,-49.053045,-60.650092)" />
    <linearGradient
       inkscape:collect="always"
       xlink:href="#linearGradient7"
       id="linearGradient8"
       x1="49.556961"
       y1="125.89307"
       x2="144.39191"
       y2="125.89307"
       gradientUnits="userSpaceOnUse"
       gradientTransform="matrix(1.2359468,0,0,1.2209665,-49.053045,-60.650092)" />
    <linearGradient
       inkscape:collect="always"
       xlink:href="#linearGradient9"
       id="linearGradient10"
       x1="121.79521"
       y1="118.00018"
       x2="121.79521"
       y2="159.90767"
       gradientUnits="userSpaceOnUse"
       gradientTransform="matrix(1.2359468,0,0,1.2209665,-49.053045,-60.650092)" />
    <linearGradient
       inkscape:collect="always"
       xlink:href="#linearGradient18"
       id="linearGradient19"
       x1="111.07592"
       y1="145.76578"
       x2="111.07592"
       y2="212.06967"
       gradientUnits="userSpaceOnUse"
       gradientTransform="matrix(1.2359468,0,0,1.2209665,-49.053045,-60.650092)" />
  </defs>
  <g
     inkscape:groupmode="layer"
     id="layer2"
     inkscape:label="Layer 2"
     style="display:none">
    <path
       style="fill:url(#linearGradient8);fill-opacity:1;stroke:none;stroke-width:0.491374;stroke-opacity:1"
       d="m 56.972418,31.154221 c 0,0 -27.879205,5.424799 -24.49991,48.405908 0,0 6.336185,35.469861 -2.112059,51.744251 0,0 -2.956885,10.43231 -18.163725,22.95108 0,0 21.543022,7.51127 37.172274,5.00752 0,0 5.068947,-9.59773 5.913771,-18.36087 l -2.112061,18.77816 c 0,0 19.853373,8.34584 29.991261,-3.75564 l 1.267241,-11.26689 1.689651,12.93606 c 0,0 6.33618,7.51127 21.120609,2.50376 0,0 1.26723,-37.55631 13.9396,-67.601365 0,0 -15.62925,54.248005 -9.71548,67.601365 0,0 10.98271,0.41729 15.20685,-6.25939 0,0 7.6034,-57.169053 -2.53449,-75.11262 0,0 8.87067,-32.548804 -20.27578,-53.830712 0,0 -34.215385,-5.424803 -46.887752,6.259383 z"
       id="path7" />
  </g>
  <g
     inkscape:label="Layer 1"
     inkscape:groupmode="layer"
     id="layer1"
     style="display:none">
    <path
       style="fill:#ffe3b0;fill-opacity:1;stroke:none;stroke-width:0.982747;stroke-dasharray:none;stroke-opacity:1"
       d="M 40.075929,54.939885 C 27.403563,85.402221 54.860356,108.3533 54.860356,108.3533 c 0,0 70.542834,-23.368368 69.698004,-4.17292 0,0 4.64655,-26.289422 -7.60341,-61.759265 0,0 -42.663633,-42.98111065 -76.879021,12.51877 z"
       id="path1" />
    <path
       style="fill:url(#linearGradient3);fill-opacity:1;stroke:none;stroke-width:0.982746;stroke-dasharray:none;stroke-opacity:1"
       d="m 38.386277,46.176745 c 13.09478,30.879633 3.801712,39.225476 3.801712,39.225476 L 54.860356,73.718036 c 0,0 2.534473,-31.296921 -1.689648,-35.469845 0,0 12.249953,16.691694 8.448244,24.620252 l 13.939596,-5.424804 c 0,0 0.844831,-19.195448 -2.956879,-25.03754 0,0 15.629252,16.274401 13.517192,24.620248 0,0 9.293071,-5.424801 16.051659,-4.590216 l 0.84482,-16.691694 c 0,0 13.93961,16.691694 19.00855,48.405915 0,0 2.9569,20.030028 10.98273,34.217968 l 2.53447,-17.10899 c 0,0 -7.60343,-21.699201 -9.71549,-40.060061 0,0 -6.75859,-42.981109 -37.17227,-37.973601 0,0 -27.879209,-7.511265 -50.267053,22.951077 z"
       id="path2" />
    <path
       style="fill:#ffd17d;fill-opacity:1;stroke:none;stroke-width:1.01052;stroke-dasharray:none;stroke-opacity:1"
       d="m 54.015529,107.936 70.120391,-3.75562 v -2.08646 c 0,0 0.89325,-22.116501 -70.120391,5.84208 z"
       id="path3" />
    <path
       style="fill:none;fill-opacity:1;stroke:#000000;stroke-width:1.84265;stroke-dasharray:none;stroke-opacity:1"
       d="M 54.437941,61.616562 C 69.64478,66.624075 69.64478,66.624075 69.64478,66.624075 L 54.860354,75.387207"
       id="path4" />
    <path
       style="fill:none;fill-opacity:1;stroke:#000000;stroke-width:1.84265;stroke-dasharray:none;stroke-opacity:1"
       d="M 102.39263,67.375177 C 87.185816,62.367651 87.185816,62.367651 87.185816,62.367651 l 14.784404,-8.763165"
       id="path5" />
    <path
       style="fill:none;fill-opacity:1;stroke:#000000;stroke-width:0.491374;stroke-dasharray:none;stroke-opacity:1"
       d="m 74.713729,82.481181 c 0,0 5.913771,-10.015014 16.051661,-1.669171"
       id="path6" />
  </g>
  <g
     inkscape:groupmode="layer"
     id="layer7"
     inkscape:label="Layer 7"
     style="display:none">
    <path
       style="fill:url(#linearGradient19);fill-opacity:1;stroke:none;stroke-width:1.53063;stroke-dasharray:none;stroke-opacity:1"
       d="m 53.59312,117.53374 -6.336184,80.12012 81.947974,5.00751 -2.11206,-86.7968 -3.37931,-2.92104 z"
       id="path18" />
    <path
       style="fill:#050036;fill-opacity:1;stroke:none;stroke-width:1.53063;stroke-dasharray:none;stroke-opacity:1"
       d="m 51.481057,192.64636 c 0,0 -5.491356,49.24049 4.224121,65.51489 l 16.896491,1.25188 c 0,0 9.293072,-32.9661 11.827541,-46.73674 0,0 13.517192,23.36837 21.54302,25.03754 l -5.06895,21.28191 14.78443,4.59021 c 0,0 19.43097,-23.78566 22.81027,-34.63527 0,0 3.37929,-9.18042 -3.80171,-15.02251 l -7.60342,-13.77065 z"
       id="path19" />
    <path
       style="fill:#bc0000;fill-opacity:1;stroke:none;stroke-width:1.53063;stroke-dasharray:none;stroke-opacity:1"
       d="m 57.394828,256.49208 c 0,0 -6.336184,2.92105 -6.336184,8.76314 l -1.267234,5.4248 c 0,0 10.982718,4.17293 17.3189,1.25189 l 9.293069,-7.51127 v -8.76314 z"
       id="path20" />
    <path
       style="fill:#bc0000;fill-opacity:1;stroke:none;stroke-width:1.53063;stroke-dasharray:none;stroke-opacity:1"
       d="m 117.79979,257.74396 c 0,0 6.33618,2.92105 6.33618,8.76314 l 1.26722,5.42481 c 0,0 -10.9827,4.17292 -17.31889,1.25188 l -9.293067,-7.51127 v -8.76314 z"
       id="path21" />
    <path
       style="fill:none;fill-opacity:1;stroke:#ffffff;stroke-width:0.916412;stroke-dasharray:none;stroke-opacity:1"
       d="m 54.860356,258.99584 c 0,0 6.758596,-2.50376 9.293068,-0.83459"
       id="path22" />
    <path
       style="fill:none;fill-opacity:1;stroke:#ffffff;stroke-width:0.899229;stroke-dasharray:none;stroke-opacity:1"
       d="m 54.466104,261.47473 c 0,0 5.197359,-3.13493 7.146366,-1.04498"
       id="path23" />
    <path
       style="fill:none;fill-opacity:1;stroke:#ffffff;stroke-width:0.899229;stroke-dasharray:none;stroke-opacity:1"
       d="m 113.1814,261.89202 c 0,0 5.19735,-3.13493 7.14637,-1.04498"
       id="path24" />
    <path
       style="fill:none;fill-opacity:1;stroke:#ffffff;stroke-width:0.899229;stroke-dasharray:none;stroke-opacity:1"
       d="m 111.91416,260.22285 c 0,0 5.19735,-3.13493 7.14637,-1.04498"
       id="path25" />
    <path
       style="fill:#cedbe4;fill-opacity:1;stroke:none;stroke-width:0.916413;stroke-dasharray:none;stroke-opacity:1"
       d="m 50.432381,266.72301 c 0,0 7.181007,2.08646 12.672367,2.50375 l 8.448245,-4.17291 5.491361,-4.59021 -0.42241,4.17292 -10.56031,8.34584 c 0,0 -14.784428,0.41729 -16.051664,-1.66917 -1.267236,-2.08646 0.422411,-4.59022 0.422411,-4.59022 z"
       id="path26" />
    <path
       style="fill:#cedbe4;fill-opacity:1;stroke:none;stroke-width:0.916413;stroke-dasharray:none;stroke-opacity:1"
       d="m 98.368811,263.16875 14.362009,7.51127 c 0,0 9.29307,-0.41727 12.24997,-2.50375 l 1.68965,3.75564 c 0,0 -9.71549,2.92104 -13.5172,2.50375 0,0 -6.15423,-0.5313 -6.80991,-2.25858 l -8.305295,-6.5853 z"
       id="path27" />
    <ellipse
       style="fill:#d4aa00;fill-rule:evenodd;stroke-width:0.325023"
       id="path28"
       cx="87.30069"
       cy="134.17278"
       rx="3.5694695"
       ry="3.3498955" />
    <ellipse
       style="fill:#d4aa00;fill-rule:evenodd;stroke-width:0.325023"
       id="ellipse28"
       cx="88.371536"
       cy="152.86166"
       rx="3.5694695"
       ry="3.3498955" />
    <ellipse
       style="fill:#d4aa00;fill-rule:evenodd;stroke-width:0.325023"
       id="ellipse29"
       cx="88.371536"
       cy="175.47469"
       rx="3.5694695"
       ry="3.3498955"
       inkscape:label="ellipse29" />
  </g>
  <g
     inkscape:groupmode="layer"
     id="layer3"
     inkscape:label="Layer 3"
     style="display:inline">
    <path
       style="fill:#906e00;fill-opacity:1;stroke:#000000;stroke-width:0.36853;stroke-dasharray:none;stroke-opacity:1"
       d="m 88.643529,119.16854 c 0,0 -20.687905,-14.96204 -39.264803,-15.4021 0,0 0.422205,7.48103 2.533216,9.68133 l -2.955415,4.84066 c 0,0 22.376708,2.64034 39.687002,0.88011 z"
       id="path8" />
    <path
       style="fill:url(#linearGradient10);fill-opacity:1;stroke:#000000;stroke-width:0.36853;stroke-dasharray:none;stroke-opacity:1"
       d="m 75.581598,119.83538 c 0,0 25.563852,-19.06388 49.805772,-21.654792 0,0 0.18872,8.410922 -2.35315,11.109212 l 4.34284,5.07757 c 0,0 -28.991551,5.47998 -51.795462,5.46801 z"
       id="path9" />
  </g>
  <g
     inkscape:groupmode="layer"
     id="layer4"
     inkscape:label="Layer 4"
     style="display:none">
    <path
       style="fill:#804600;fill-opacity:1;stroke:#000000;stroke-width:0.491374;stroke-opacity:1"
       d="m 69.644781,193.06365 c 0,0 89.128979,-152.728998 103.913399,-136.871888 0,0 -27.8792,7.51126 -95.88756,138.541058 z"
       id="path12" />
  </g>
  <g
     inkscape:groupmode="layer"
     id="layer6"
     inkscape:label="Layer 6"
     style="display:none">
    <path
       style="fill:#ffd291;fill-opacity:1;stroke:none;stroke-width:1.63148;stroke-dasharray:none;stroke-opacity:1"
       d="m 106.81416,174.11699 -7.737905,-5.35721 c 0,0 -19.989499,2.38098 -15.475747,-10.11916 0,0 8.38271,-18.45261 21.279202,-0.59525 l 6.44823,4.76196 -6.44823,-4.76196"
       id="path14" />
    <path
       style="fill:#ffd291;fill-opacity:1;stroke:none;stroke-width:1.63148;stroke-dasharray:none;stroke-opacity:1"
       d="m 68.019674,192.06056 7.737898,-5.35721 c 0,0 19.989512,2.38099 15.47576,-10.11915 0,0 -8.382723,-18.45261 -21.279203,-0.59525 l -6.448229,4.76196 6.448229,-4.76196"
       id="path15" />
    <path
       style="fill:#160044;fill-opacity:1;stroke:none;stroke-width:1.53063;stroke-dasharray:none;stroke-opacity:1"
       d="m 103.86017,152.58629 -0.42242,27.95858 58.7153,5.8421 c 0,0 13.09478,0.83459 9.71548,-13.35336 l -39.70675,-60.92468 -2.53446,2.92106 -1.68966,-2.50377 -2.53447,2.50377 16.05167,50.07508 z"
       id="path16" />
    <path
       style="fill:#160044;fill-opacity:1;stroke:none;stroke-width:1.53063;stroke-dasharray:none;stroke-opacity:1"
       d="M 46.923276,118.65473 22.738154,197.2076 c 0,0 -5.043018,8.61757 7.567994,7.13084 l 41.031396,-7.96814 0.852739,-23.86213 -39.835034,14.59218 10.278381,2.39444 11.16827,-60.7486 2.707318,-10.33322 z"
       id="path17"
       inkscape:transform-center-x="0.3569468"
       inkscape:transform-center-y="3.1735851"
       sodipodi:nodetypes="cccccccccc" />
  </g>
  <g
     inkscape:groupmode="layer"
     id="layer5"
     inkscape:label="Layer 5"
     style="display:none">
    <path
       style="fill:none;fill-opacity:1;stroke:#000000;stroke-width:1.10559;stroke-dasharray:none;stroke-opacity:1"
       d="m 172.71336,56.191762 34.6378,192.371758"
       id="path13" />
  </g>
</svg>
