<svg viewBox="0 0 1200 400" xmlns="http://www.w3.org/2000/svg">
  <g>
    <path d="M-234.503 62.9885C-214.583 66.7122 -194.131 71.9352 -172.734 78.5213C-136.933 89.541 -101.133 100.561 -65.3318 103.044C-32.4851 105.322 4.94849 94.2765 49.1106 81.246C104.814 64.8101 171.222 45.2157 252.631 45.2157C310.768 45.2157 360.634 58.5406 408.654 71.3721C481.186 90.7533 549.504 109.009 635.749 78.5213C779.093 27.8489 869.009 29.2482 987.593 84.6647C1106.18 140.081 1202.81 129.73 1281.68 104.512C1289.32 102.069 1296.88 99.5096 1304.39 96.9682C1334.33 86.8345 1363.41 76.992 1393.1 76.0318C1434.72 74.4938 1476.34 88.4682 1517.96 102.443C1550.62 113.409 1583.28 124.375 1615.93 127.845C1657.24 132.233 1698.55 124.525 1739.85 116.817C1772.82 110.665 1805.8 104.512 1838.77 104.512C1873.08 104.512 1907.39 111.174 1941.7 117.837C1981.67 125.598 2021.64 133.359 2061.6 130.59C2097.4 128.109 2133.2 117.099 2169 106.089C2207.48 94.2561 2245.96 82.423 2284.44 81.1788C2341.25 79.079 2390.31 90.5656 2439.25 102.024C2499.42 116.114 2559.42 130.162 2633.44 118.854C2673.44 112.743 2711.69 102.867 2749.43 93.123C2839.45 69.8781 2926.57 47.3812 3027.74 78.5213C3063.54 89.541 3099.34 100.561 3135.14 103.044C3175.11 105.816 3215.08 98.0477 3255.04 90.2798C3326.95 76.3038 3384.83 75.7991 3456.89 89.2591C3498.2 96.974 3539.51 104.689 3580.81 100.296C3613.47 96.8231 3646.13 85.8474 3678.79 74.8716C3768.54 44.7083 3827.1 44.608 3915.06 76.9424C3923.16 79.9196 3931.57 83.2485 3940.16 86.6466C3970.93 98.8301 4003.96 111.903 4033 112.843C4253.42 112.843 4253.36 117.509 4250.22 340.35C4249.79 370.451 4249.31 404.533 4249.31 443.122L-234.503 443.122V62.9885Z" fill="#52bbd3"/>
  </g>
</svg>