<svg viewBox="0 0 1200 400" xmlns="http://www.w3.org/2000/svg">
  <g>
    <path d="M-122.434 62.9885C-102.514 66.7122 -82.0618 71.9352 -60.6653 78.5213C-24.8645 89.541 10.9358 100.561 46.7371 103.044C79.5837 105.322 117.017 94.2765 161.179 81.246C216.883 64.8101 283.291 45.2157 364.699 45.2157C422.836 45.2157 472.703 58.5406 520.723 71.3721C593.254 90.7533 661.573 109.009 747.818 78.5213C891.162 27.8489 981.078 29.2482 1099.66 84.6647C1218.25 140.081 1314.87 129.73 1393.75 104.512C1401.39 102.069 1408.95 99.5096 1416.46 96.9682C1446.4 86.8345 1475.47 76.992 1505.17 76.0318C1546.79 74.4938 1588.41 88.4682 1630.02 102.443C1662.68 113.409 1695.34 124.375 1728 127.845C1769.31 132.233 1810.61 124.525 1851.92 116.817C1884.89 110.665 1917.86 104.512 1950.84 104.512C1985.15 104.512 2019.46 111.174 2053.77 117.837C2093.74 125.598 2133.7 133.359 2173.67 130.59C2209.47 128.109 2245.27 117.099 2281.07 106.089C2319.55 94.2561 2358.03 82.423 2396.51 81.1788C2453.32 79.079 2502.38 90.5656 2551.31 102.024C2611.49 116.114 2671.48 130.162 2745.51 118.854C2785.51 112.743 2823.76 102.867 2861.5 93.123C2951.52 69.8781 3038.64 47.3812 3139.81 78.5213C3175.61 89.541 3211.41 100.561 3247.21 103.044C3287.18 105.816 3327.15 98.0477 3367.11 90.2798C3439.02 76.3038 3496.9 75.7991 3568.96 89.2591C3610.27 96.974 3651.57 104.689 3692.88 100.296C3725.54 96.8231 3758.2 85.8474 3790.86 74.8716C3880.61 44.7083 3939.17 44.608 4027.13 76.9424C4035.23 79.9196 4043.64 83.2485 4052.22 86.6466C4083 98.8301 4116.02 111.903 4145.06 112.843C4365.49 112.843 4365.42 117.509 4362.29 340.35C4361.86 370.451 4361.38 404.533 4361.38 443.122L-122.434 443.122V62.9885Z" fill="#64d7f1"/>
  </g>
</svg>