<svg viewBox="0 0 2400 400" xmlns="http://www.w3.org/2000/svg">
  <g>
    <!-- ORIGINAL -->
    <path d="M581.253 62.9885C561.333 66.7122 540.881 71.9352 519.484 78.5213C483.684 89.541 447.883 100.561 412.082 103.044C379.235 105.322 341.802 94.2765 297.64 81.246C241.936 64.8101 175.528 45.2157 94.1196 45.2157C35.9827 45.2157 -13.8838 58.5406 -61.9038 71.3721C-134.435 90.7533 -202.754 109.009 -288.999 78.5213C-432.343 27.8489 -522.259 29.2482 -640.843 84.6647C-759.427 140.081 -856.056 129.73 -934.931 104.512C-942.57 102.069 -950.132 99.5096 -957.64 96.9682C-987.578 86.8345 -1016.66 76.992 -1046.35 76.0318C-1087.97 74.4938 -1129.59 88.4682 -1171.21 102.443C-1203.87 113.409 -1236.52 124.375 -1269.18 127.845C-1310.49 132.233 -1351.8 124.525 -1393.1 116.817C-1426.07 110.665 -1459.05 104.512 -1492.02 104.512C-1526.33 104.512 -1560.64 111.174 -1594.95 117.837C-1634.92 125.598 -1674.89 133.359 -1714.85 130.59C-1750.65 128.109 -1786.45 117.099 -1822.25 106.089C-1860.73 94.2561 -1899.21 82.423 -1937.69 81.1788C-1994.5 79.079 -2043.56 90.5656 -2092.5 102.024C-2152.67 116.114 -2212.67 130.162 -2286.69 118.854C-2326.69 112.743 -2364.94 102.867 -2402.68 93.123C-2492.7 69.8781 -2579.82 47.3812 -2680.99 78.5213C-2716.79 89.541 -2752.59 100.561 -2788.39 103.044C-2828.36 105.816 -2868.33 98.0477 -2908.29 90.2798C-2980.2 76.3038 -3038.08 75.7991 -3110.14 89.2591C-3151.45 96.974 -3192.76 104.689 -3234.06 100.296C-3266.72 96.8231 -3299.38 85.8474 -3332.04 74.8716C-3421.79 44.7083 -3480.35 44.608 -3568.31 76.9424C-3576.41 79.9196 -3584.82 83.2485 -3593.41 86.6466C-3624.18 98.8301 -3657.21 111.903 -3686.25 112.843C-3906.67 112.843 -3906.61 117.509 -3903.47 340.35C-3903.04 370.451 -3902.56 404.533 -3902.56 443.122L581.253 443.122V62.9885Z" fill="#54a9bb"/>

    <!-- DUPLICATE (shifted right) -->
    <path d="M581.253 62.9885C561.333 66.7122 540.881 71.9352 519.484 78.5213C483.684 89.541 447.883 100.561 412.082 103.044C379.235 105.322 341.802 94.2765 297.64 81.246C241.936 64.8101 175.528 45.2157 94.1196 45.2157C35.9827 45.2157 -13.8838 58.5406 -61.9038 71.3721C-134.435 90.7533 -202.754 109.009 -288.999 78.5213C-432.343 27.8489 -522.259 29.2482 -640.843 84.6647C-759.427 140.081 -856.056 129.73 -934.931 104.512C-942.57 102.069 -950.132 99.5096 -957.64 96.9682C-987.578 86.8345 -1016.66 76.992 -1046.35 76.0318C-1087.97 74.4938 -1129.59 88.4682 -1171.21 102.443C-1203.87 113.409 -1236.52 124.375 -1269.18 127.845C-1310.49 132.233 -1351.8 124.525 -1393.1 116.817C-1426.07 110.665 -1459.05 104.512 -1492.02 104.512C-1526.33 104.512 -1560.64 111.174 -1594.95 117.837C-1634.92 125.598 -1674.89 133.359 -1714.85 130.59C-1750.65 128.109 -1786.45 117.099 -1822.25 106.089C-1860.73 94.2561 -1899.21 82.423 -1937.69 81.1788C-1994.5 79.079 -2043.56 90.5656 -2092.5 102.024C-2152.67 116.114 -2212.67 130.162 -2286.69 118.854C-2326.69 112.743 -2364.94 102.867 -2402.68 93.123C-2492.7 69.8781 -2579.82 47.3812 -2680.99 78.5213C-2716.79 89.541 -2752.59 100.561 -2788.39 103.044C-2828.36 105.816 -2868.33 98.0477 -2908.29 90.2798C-2980.2 76.3038 -3038.08 75.7991 -3110.14 89.2591C-3151.45 96.974 -3192.76 104.689 -3234.06 100.296C-3266.72 96.8231 -3299.38 85.8474 -3332.04 74.8716C-3421.79 44.7083 -3480.35 44.608 -3568.31 76.9424C-3576.41 79.9196 -3584.82 83.2485 -3593.41 86.6466C-3624.18 98.8301 -3657.21 111.903 -3686.25 112.843C-3906.67 112.843 -3906.61 117.509 -3903.47 340.35C-3903.04 370.451 -3902.56 404.533 -3902.56 443.122L581.253 443.122V62.9885Z"
          fill="#54a9bb"
          transform="translate(1150, 0)" />
    
    <path d="M581.253 62.9885C561.333 66.7122 540.881 71.9352 519.484 78.5213C483.684 89.541 447.883 100.561 412.082 103.044C379.235 105.322 341.802 94.2765 297.64 81.246C241.936 64.8101 175.528 45.2157 94.1196 45.2157C35.9827 45.2157 -13.8838 58.5406 -61.9038 71.3721C-134.435 90.7533 -202.754 109.009 -288.999 78.5213C-432.343 27.8489 -522.259 29.2482 -640.843 84.6647C-759.427 140.081 -856.056 129.73 -934.931 104.512C-942.57 102.069 -950.132 99.5096 -957.64 96.9682C-987.578 86.8345 -1016.66 76.992 -1046.35 76.0318C-1087.97 74.4938 -1129.59 88.4682 -1171.21 102.443C-1203.87 113.409 -1236.52 124.375 -1269.18 127.845C-1310.49 132.233 -1351.8 124.525 -1393.1 116.817C-1426.07 110.665 -1459.05 104.512 -1492.02 104.512C-1526.33 104.512 -1560.64 111.174 -1594.95 117.837C-1634.92 125.598 -1674.89 133.359 -1714.85 130.59C-1750.65 128.109 -1786.45 117.099 -1822.25 106.089C-1860.73 94.2561 -1899.21 82.423 -1937.69 81.1788C-1994.5 79.079 -2043.56 90.5656 -2092.5 102.024C-2152.67 116.114 -2212.67 130.162 -2286.69 118.854C-2326.69 112.743 -2364.94 102.867 -2402.68 93.123C-2492.7 69.8781 -2579.82 47.3812 -2680.99 78.5213C-2716.79 89.541 -2752.59 100.561 -2788.39 103.044C-2828.36 105.816 -2868.33 98.0477 -2908.29 90.2798C-2980.2 76.3038 -3038.08 75.7991 -3110.14 89.2591C-3151.45 96.974 -3192.76 104.689 -3234.06 100.296C-3266.72 96.8231 -3299.38 85.8474 -3332.04 74.8716C-3421.79 44.7083 -3480.35 44.608 -3568.31 76.9424C-3576.41 79.9196 -3584.82 83.2485 -3593.41 86.6466C-3624.18 98.8301 -3657.21 111.903 -3686.25 112.843C-3906.67 112.843 -3906.61 117.509 -3903.47 340.35C-3903.04 370.451 -3902.56 404.533 -3902.56 443.122L581.253 443.122V62.9885Z"
          fill="#54a9bb"
          transform="translate(2300, 0)" />
  </g>
</svg>