<svg viewBox="0 0 1200 400" xmlns="http://www.w3.org/2000/svg">
  <g>
    <path d="M956.553 62.9885C936.633 66.7122 916.181 71.9352 894.784 78.5213C858.983 89.541 823.183 100.561 787.382 103.044C754.535 105.322 717.102 94.2765 672.939 81.246C617.236 64.8101 550.828 45.2157 469.419 45.2157C411.282 45.2157 361.416 58.5406 313.396 71.3721C240.865 90.7533 172.546 109.009 86.3008 78.5213C-57.043 27.8489 -146.959 29.2482 -265.543 84.6647C-384.127 140.081 -480.756 129.73 -559.631 104.512C-567.271 102.069 -574.833 99.5096 -582.341 96.9682C-612.278 86.8345 -641.356 76.992 -671.048 76.0318C-712.667 74.4938 -754.287 88.4682 -795.906 102.443C-828.566 113.409 -861.225 124.375 -893.884 127.845C-935.19 132.233 -976.496 124.525 -1017.8 116.817C-1050.77 110.665 -1083.75 104.512 -1116.72 104.512C-1151.03 104.512 -1185.34 111.174 -1219.65 117.837C-1259.62 125.598 -1299.59 133.359 -1339.55 130.59C-1375.35 128.109 -1411.15 117.099 -1446.95 106.089C-1485.43 94.2561 -1523.91 82.423 -1562.39 81.1788C-1619.2 79.079 -1668.26 90.5656 -1717.2 102.024C-1777.37 116.114 -1837.37 130.162 -1911.39 118.854C-1951.39 112.743 -1989.64 102.867 -2027.38 93.123C-2117.4 69.8781 -2204.52 47.3812 -2305.69 78.5213C-2341.49 89.541 -2377.29 100.561 -2413.09 103.044C-2453.06 105.816 -2493.03 98.0477 -2532.99 90.2798C-2604.9 76.3038 -2662.78 75.7991 -2734.84 89.2591C-2776.15 96.974 -2817.46 104.689 -2858.76 100.296C-2891.42 96.8231 -2924.08 85.8474 -2956.74 74.8716C-3046.49 44.7083 -3105.05 44.608 -3193.01 76.9424C-3201.11 79.9196 -3209.52 83.2485 -3218.11 86.6466C-3248.88 98.8301 -3281.91 111.903 -3310.95 112.843C-3531.37 112.843 -3531.31 117.509 -3528.17 340.35C-3527.74 370.451 -3527.26 404.533 -3527.26 443.122L956.553 443.122V62.9885Z" fill="#93DCEC"/>
  </g>
</svg>